<svg xmlns="http://www.w3.org/2000/svg" xmlns:xlink="http://www.w3.org/1999/xlink" version="1.1" width="199.99998" height="229.83015" viewBox="0 0 199.99998 229.83016" id="Layer_1" xml:space="preserve" style="overflow:visible">
<title>University of Queensland</title>
<defs id="defs155"/>
<g transform="matrix(2.0610907,0,0,2.0610907,-1.7127688,-2.0940682)" id="g3">
<defs id="defs5">
<rect width="400" height="113.473" x="0" y="0" id="XMLID_1_"/>
</defs>
<clipPath id="XMLID_3_">
<use id="use9" x="0" y="0" width="400" height="113.473" xlink:href="#XMLID_1_"/>
</clipPath>
<path d="m 12.237,86.934 v 0.123 l 0.838,0.578 v -0.701 h 0.818 v 1.377 l 3.37,2.271 v -0.887 l -2.569,-1.713 v -1.049 h 0.988 l 1.378,0.895 V 87 l -0.107,-0.066 h 1.241 v 4.188 l 0.857,0.539 v -4.273 l 2.159,5.563 0.878,0.521 V 87.62 l -0.765,-0.443 v 4.273 l -1.78,-4.516 h 3.293 c 6.576,3.508 13.443,6.09 19.25,7.316 l -8.407,5.146 C 25.315,96.621 17.206,91.917 10.69,86.933 h 1.547 z m 65.443,0 -1.031,0.586 v 5.777 l 2.329,-1.346 c 1.339,-0.715 1.88,-1.756 1.88,-2.678 0,-0.768 -0.354,-1.119 -0.969,-0.926 0.4,-0.447 0.648,-0.936 0.711,-1.418 l 0.742,0.004 c -0.067,0.471 -0.059,0.939 0.017,1.357 0.243,1.385 1.25,1.77 2.555,0.5 0.559,-0.533 0.984,-1.18 1.275,-1.854 l 1.05,-0.004 v 0.143 l 0.188,-0.143 h 1.578 C 81.498,91.916 73.39,96.62 65.001,99.395 l -8.41,-5.146 C 62.4,93.022 69.267,90.44 75.841,86.935 l 1.839,-0.001 z m 1.949,0 c 0.07,0.09 0.113,0.236 0.113,0.453 0,0.5 -0.336,0.982 -0.745,1.23 l -1.454,0.811 v -1.58 L 78.997,87 c 0.042,-0.025 0.084,-0.049 0.124,-0.066 h 0.508 z m 4.953,0 c -0.164,0.42 -0.421,0.832 -0.781,1.184 -0.969,0.908 -1.527,0.365 -1.678,-0.598 -0.035,-0.184 -0.059,-0.381 -0.059,-0.59 l 2.518,0.004 z m -13.762,9.309 1.024,-0.479 0.446,-1.756 2.122,-0.98 0.636,1.232 0.948,-0.443 -2.383,-4.734 -0.968,0.441 -1.825,6.719 z m -4.543,1.754 3.928,-1.598 v -0.887 l -2.941,1.193 v -4.891 l -0.986,0.404 v 5.779 z m 11.266,-7.838 1.564,-0.885 c 0.521,-0.309 0.856,-0.174 0.856,0.402 0,0.563 -0.335,1.082 -0.856,1.369 l -1.564,0.906 v -1.792 z m -4.284,0.097 0.858,2.115 -1.621,0.734 0.763,-2.849 z m -44.171,6.567 1.045,0.402 0.539,-1.424 2.086,0.846 0.521,1.713 1.024,0.424 -2.105,-6.621 -0.948,-0.365 -2.162,5.025 z m -6.108,-7.858 1.491,0.75 v 4.836 l 0.968,0.559 v -4.834 l 1.546,0.75 V 90.139 L 22.98,88.118 v 0.847 z m 4.804,7.223 0.968,0.439 v -5.66 l -0.968,-0.461 v 5.682 z m 3.932,-3.16 0.781,2.736 -1.583,-0.654 0.802,-2.082 z m 11.898,17.002 1.082,0.061 0.558,-1.502 2.346,0.172 0.595,1.598 1.082,0.08 -2.292,-6.049 -1.078,-0.076 -2.293,5.716 z m 11.324,-3.963 c -0.15,-1.271 -1.23,-1.93 -2.534,-1.869 -1.767,0.115 -2.792,1.561 -2.792,3.273 0.037,1.656 1.115,3.002 2.887,2.887 1.432,-0.076 2.419,-1.096 2.476,-2.523 l -1.008,0.08 c -0.073,0.826 -0.574,1.557 -1.506,1.615 -1.266,0.078 -1.807,-1.02 -1.807,-2.139 -0.017,-1.133 0.482,-2.268 1.75,-2.348 0.875,-0.057 1.304,0.424 1.489,1.078 l 1.045,-0.054 z m -20.719,-5.318 c 5.092,1.621 10.33,2.543 15.12,2.543 4.811,0 10.029,-0.922 15.121,-2.543 v 7.727 c -4.048,1.855 -9.342,3.086 -15.121,3.086 -5.761,0 -11.055,-1.23 -15.12,-3.086 v -7.727 z m 12.225,4.544 0.896,2.541 -1.826,-0.111 0.93,-2.43 z" clip-path="url(#XMLID_3_)" id="path79" style="fill:#bda051;fill-rule:evenodd"/>
<path d="M 10.692,86.934 C 7.256,84.307 4.265,81.604 1.912,79.061 v -4.469 -4.648 c 4.629,6.559 12.538,12.525 20.927,16.992 l -3.296,-0.002 -0.398,-1.012 -0.948,-0.555 v 1.566 h -1.242 l -2.26,-1.475 v -1.521 l 2.534,1.695 v -0.885 l -3.333,-2.176 v 4.361 H 13.075 V 81.973 L 12.24,81.397 v 5.535 h -1.548 z m 4.002,0 V 86.29 l 0.987,0.645 h -0.987 z m 61.147,0 c 8.387,-4.465 16.298,-10.432 20.926,-16.99 v 9.117 c -2.347,2.543 -5.333,5.246 -8.763,7.873 H 86.43 l 0.629,-0.492 V 84.153 L 88.27,83.19 c 0.745,-0.561 0.911,-0.27 0.911,0.77 0,0.25 0,0.578 0.131,0.732 l 0.878,-0.674 c -0.17,-0.098 -0.244,-0.637 -0.244,-1.289 0,-0.887 -0.412,-0.791 -0.688,-0.619 0.148,-0.191 0.762,-0.982 0.762,-2.02 0,-0.963 -0.522,-1.1 -1.548,-0.309 l -2.232,1.77 v 5.383 h -1.051 c 0.396,-0.912 0.53,-1.869 0.38,-2.648 -0.259,-1.404 -1.268,-1.809 -2.607,-0.559 -0.92,0.887 -1.462,2.084 -1.617,3.195 l -0.741,0.012 c 0.008,-0.082 0.014,-0.162 0.014,-0.24 0,-0.963 -0.596,-1.078 -1.508,-0.58 l -1.431,0.82 h -1.838 z m 3.281,0 c 0.226,-0.107 0.401,-0.113 0.506,0.004 l -0.506,-0.004 z m 2.941,0 c -0.002,-0.82 0.297,-1.773 1.068,-2.492 0.911,-0.906 1.471,-0.367 1.656,0.559 0.101,0.553 0.06,1.256 -0.204,1.924 l -2.52,0.009 z m 8.757,-3.553 2.978,-2.736 v -0.863 l -2.251,2.08 v -1.621 l 2.049,-1.863 v -0.791 l -2.049,1.865 v -1.443 l 2.197,-2.059 v -0.83 l -2.924,2.678 v 5.583 z m -3.761,-1.539 1.321,-1.021 c 0.429,-0.326 0.801,-0.52 0.801,0.211 0,0.58 -0.278,1.098 -0.781,1.541 l -1.341,1.002 V 81.842 z M 3.985,78.434 c 0.021,1.424 0.746,2.598 1.641,3.234 0.765,0.539 1.526,0.576 1.526,-0.717 0,-0.594 -0.259,-1.441 -0.762,-2 C 6.185,78.703 5.326,77.777 5.272,77.681 5.013,77.374 4.828,77.005 4.828,76.603 c 0,-0.559 0.372,-0.443 0.705,-0.252 0.466,0.348 0.781,0.867 0.821,1.656 l 0.669,0.463 c 0,-1.193 -0.669,-2.311 -1.49,-2.908 -0.705,-0.5 -1.397,-0.443 -1.397,0.674 0,0.615 0.207,1.369 0.858,2.084 l 1.153,1.307 c 0.167,0.211 0.317,0.498 0.317,0.941 0,0.463 -0.244,0.734 -0.818,0.271 C 5.103,80.472 4.658,79.818 4.658,78.915 L 3.985,78.434 z m 7.395,3.832 c -0.092,-1.273 -0.8,-2.484 -1.75,-3.082 -1.25,-0.791 -1.972,0.115 -1.972,1.752 0,1.656 0.722,3.506 1.972,4.293 1.006,0.637 1.715,0.139 1.75,-1.211 l -0.705,-0.463 c -0.039,0.807 -0.412,1.27 -1.045,0.828 -0.876,-0.561 -1.266,-1.889 -1.266,-2.984 0,-1.098 0.39,-1.963 1.266,-1.389 0.597,0.387 0.894,1.061 1.025,1.813 l 0.725,0.443 z" clip-path="url(#XMLID_3_)" id="path81" style="fill:#bda051;fill-rule:evenodd"/>
<path d="m 76.648,93.297 2.329,-1.346 c 1.339,-0.715 1.88,-1.756 1.88,-2.678 0,-0.768 -0.354,-1.119 -0.969,-0.926 0.466,-0.52 0.726,-1.096 0.726,-1.654 0,-0.963 -0.594,-1.078 -1.507,-0.58 l -2.459,1.406 v 5.778 z m -5.828,2.946 1.024,-0.479 0.446,-1.756 2.122,-0.98 0.636,1.232 0.948,-0.443 -2.383,-4.734 -0.968,0.441 -1.825,6.719 z M 82.961,83.727 C 81.642,85 81.1,86.905 81.358,88.292 c 0.243,1.385 1.25,1.77 2.555,0.5 1.32,-1.271 1.916,-3.156 1.657,-4.506 -0.263,-1.409 -1.268,-1.809 -2.609,-0.559 z m 3.277,3.35 0.818,-0.635 v -2.289 l 1.212,-0.963 c 0.744,-0.561 0.913,-0.27 0.913,0.77 0,0.25 0,0.578 0.13,0.73 l 0.875,-0.672 c -0.165,-0.098 -0.242,-0.637 -0.242,-1.289 0,-0.887 -0.41,-0.791 -0.689,-0.619 0.15,-0.191 0.767,-0.982 0.767,-2.02 0,-0.963 -0.522,-1.1 -1.548,-0.309 l -2.235,1.77 v 5.526 z m -19.961,10.92 3.928,-1.598 v -0.887 l -2.941,1.193 v -4.891 l -0.986,0.404 v 5.779 z m 24.542,-14.616 2.98,-2.736 v -0.863 l -2.253,2.078 v -1.619 l 2.046,-1.865 v -0.789 l -2.046,1.865 v -1.443 l 2.196,-2.059 v -0.83 l -2.924,2.678 v 5.583 z m 5.947,-4.32 c -6.801,7.365 -18.96,16.096 -31.765,20.336 l -8.41,-5.146 C 69.808,91.458 88.508,81.647 96.766,69.944 v 9.117 z M 77.543,87.848 78.997,87 c 0.463,-0.27 0.745,-0.191 0.745,0.387 0,0.5 -0.336,0.982 -0.745,1.23 l -1.454,0.811 v -1.58 z m 0,2.311 1.564,-0.885 c 0.521,-0.309 0.856,-0.174 0.856,0.402 0,0.563 -0.335,1.082 -0.856,1.369 l -1.564,0.906 v -1.792 z m -4.284,0.097 0.858,2.115 -1.621,0.734 0.763,-2.849 z m 9.872,-5.814 c 0.909,-0.906 1.468,-0.367 1.653,0.559 0.17,0.904 -0.052,2.213 -0.983,3.117 -0.969,0.908 -1.527,0.365 -1.678,-0.598 -0.185,-0.902 0.038,-2.176 1.008,-3.078 z m 3.926,-2.6 1.324,-1.021 c 0.429,-0.328 0.801,-0.52 0.801,0.211 0,0.58 -0.279,1.098 -0.781,1.539 l -1.344,1.004 v -1.733 z m -57.969,14.981 1.045,0.402 0.539,-1.424 2.086,0.846 0.521,1.713 1.024,0.424 -2.105,-6.621 -0.948,-0.365 -2.162,5.025 z M 3.987,78.434 c 0.021,1.424 0.745,2.598 1.637,3.232 0.765,0.541 1.53,0.578 1.53,-0.715 0,-0.594 -0.263,-1.441 -0.766,-2 C 6.186,78.703 5.327,77.777 5.271,77.681 5.012,77.374 4.826,77.005 4.826,76.603 c 0,-0.559 0.372,-0.443 0.709,-0.252 0.464,0.348 0.781,0.867 0.816,1.656 l 0.673,0.461 c 0,-1.191 -0.673,-2.309 -1.489,-2.904 -0.709,-0.502 -1.397,-0.445 -1.397,0.672 0,0.615 0.202,1.369 0.854,2.08 l 1.154,1.311 c 0.17,0.211 0.318,0.498 0.318,0.941 0,0.463 -0.242,0.73 -0.821,0.271 C 5.104,80.472 4.659,79.818 4.659,78.911 L 3.987,78.434 z m 7.395,3.832 C 11.285,80.993 10.58,79.782 9.629,79.184 8.382,78.393 7.657,79.299 7.657,80.936 c 0,1.656 0.725,3.506 1.972,4.293 1.007,0.637 1.716,0.135 1.753,-1.211 l -0.708,-0.463 c -0.038,0.807 -0.41,1.27 -1.045,0.828 -0.875,-0.561 -1.264,-1.889 -1.264,-2.984 0,-1.098 0.389,-1.965 1.264,-1.389 0.598,0.387 0.895,1.061 1.025,1.813 l 0.728,0.443 z m 0.855,4.791 0.838,0.578 v -5.66 l -0.838,-0.576 v 5.658 z m 1.657,1.254 3.37,2.271 V 89.695 L 14.695,87.982 V 86.29 l 2.366,1.539 V 87 l -2.366,-1.541 v -1.521 l 2.531,1.697 V 84.748 L 13.894,82.57 v 5.741 z m 4.3,2.811 0.857,0.539 v -4.273 l 2.159,5.563 0.878,0.521 V 87.62 l -0.765,-0.443 v 4.273 l -2.179,-5.527 -0.951,-0.559 v 5.758 z m 4.786,-2.157 1.491,0.75 v 4.836 l 0.968,0.559 v -4.834 l 1.546,0.75 V 90.139 L 22.98,88.118 v 0.847 z m 4.804,7.223 0.968,0.439 v -5.66 l -0.968,-0.461 v 5.682 z M 1.913,74.592 v -4.648 c 8.258,11.703 26.959,21.514 40.174,24.307 L 33.68,99.397 C 20.909,95.157 8.734,86.426 1.913,79.061 v -4.469 z m 29.803,18.436 0.781,2.736 -1.583,-0.654 0.802,-2.082 z m 11.898,17.002 1.082,0.061 0.558,-1.502 2.346,0.172 0.595,1.598 1.082,0.08 -2.292,-6.049 -1.078,-0.076 -2.293,5.716 z m 11.324,-3.963 c -0.15,-1.271 -1.23,-1.93 -2.534,-1.869 -1.767,0.115 -2.792,1.561 -2.792,3.273 0.037,1.656 1.115,3.002 2.887,2.887 1.432,-0.076 2.419,-1.096 2.476,-2.523 l -1.008,0.08 c -0.073,0.826 -0.574,1.557 -1.506,1.615 -1.266,0.078 -1.807,-1.02 -1.807,-2.139 -0.017,-1.133 0.482,-2.268 1.75,-2.348 0.875,-0.057 1.304,0.424 1.489,1.078 l 1.045,-0.054 z m -20.719,-5.318 c 5.092,1.621 10.33,2.543 15.12,2.543 4.811,0 10.029,-0.922 15.121,-2.543 v 7.727 c -4.048,1.855 -9.342,3.086 -15.121,3.086 -5.761,0 -11.055,-1.23 -15.12,-3.086 v -7.727 z m 12.225,4.544 0.896,2.541 -1.826,-0.111 0.93,-2.43 z" clip-path="url(#XMLID_3_)" id="path83" style="fill:none;stroke:#bda051;stroke-width:0.068;stroke-miterlimit:3.86400008"/>
<path d="M 86.551,78.542 V 70.718 L 79.038,82.03 c -0.636,0.967 -1.053,1.76 -1.312,2.588 3.092,-1.793 6.056,-3.819 8.825,-6.076" clip-path="url(#XMLID_3_)" id="path85" style="fill:#00549f"/>
<path d="M 86.551,78.542 V 70.718 L 79.038,82.03 c -0.636,0.967 -1.053,1.76 -1.312,2.588 3.092,-1.793 6.056,-3.819 8.825,-6.076 z" clip-path="url(#XMLID_3_)" id="path87" style="fill:none;stroke:#00549f;stroke-width:0.161;stroke-miterlimit:3.86400008"/>
<path d="m 55.79,101.731 c 2.757,-0.404 4.565,-0.943 7.625,-1.908 L 55.79,95.1 v 6.631 z" clip-path="url(#XMLID_3_)" id="path89" style="fill:#00549f"/>
<path d="m 55.79,101.731 c 2.757,-0.404 4.565,-0.943 7.625,-1.908 L 55.79,95.1 v 6.631 z" clip-path="url(#XMLID_3_)" id="path91" style="fill:none;stroke:#00549f;stroke-width:0.161;stroke-miterlimit:3.86400008"/>
<path d="m 42.927,95.1 -7.646,4.723 c 3.06,0.965 4.865,1.502 7.646,1.91 V 95.1 z" clip-path="url(#XMLID_3_)" id="path93" style="fill:#00549f"/>
<path d="m 42.927,95.1 -7.646,4.723 c 3.06,0.965 4.865,1.502 7.646,1.91 V 95.1 z" clip-path="url(#XMLID_3_)" id="path95" style="fill:none;stroke:#00549f;stroke-width:0.161;stroke-miterlimit:3.86400008"/>
<path d="m 86.566,89.395 -1.172,0.828 c -2.534,1.76 -5.24,3.449 -8.055,4.99 v 3.201 c 0,0 5.09,-3.254 7.42,-4.895 1.397,-1.004 1.717,-1.91 1.793,-3.297 l 0.014,-0.827 z" clip-path="url(#XMLID_3_)" id="path97" style="fill:#00549f"/>
<path d="m 86.566,89.395 -1.172,0.828 c -2.534,1.76 -5.24,3.449 -8.055,4.99 v 3.201 c 0,0 5.09,-3.254 7.42,-4.895 1.397,-1.004 1.717,-1.91 1.793,-3.297 l 0.014,-0.827 z" clip-path="url(#XMLID_3_)" id="path99" style="fill:none;stroke:#00549f;stroke-width:0.161;stroke-miterlimit:3.86400008"/>
<path d="m 11.063,77.641 0.005,-8.602 -8.148,0.02 c 2.395,3.164 5.143,6.018 8.143,8.582" clip-path="url(#XMLID_3_)" id="path101" style="fill:#00549f"/>
<path d="m 11.063,77.641 0.005,-8.602 -8.148,0.02 c 2.395,3.164 5.143,6.018 8.143,8.582 z" clip-path="url(#XMLID_3_)" id="path103" style="fill:none;stroke:#00549f;stroke-width:0.161;stroke-miterlimit:3.86400008"/>
<path d="M 20.979,84.624 C 20.718,83.792 20.306,82.995 19.681,82.03 L 12.147,70.717 v 7.83 c 2.769,2.26 5.735,4.282 8.832,6.077" clip-path="url(#XMLID_3_)" id="path105" style="fill:#00549f"/>
<path d="M 20.979,84.624 C 20.718,83.792 20.306,82.995 19.681,82.03 L 12.147,70.717 v 7.83 c 2.769,2.26 5.735,4.282 8.832,6.077 z" clip-path="url(#XMLID_3_)" id="path107" style="fill:none;stroke:#00549f;stroke-width:0.161;stroke-miterlimit:3.86400008"/>
<path d="m 12.129,89.385 0.037,0.838 c 0.037,1.389 0.372,2.291 1.77,3.295 2.313,1.641 7.422,4.895 7.422,4.895 v -3.209 c -2.807,-1.539 -5.508,-3.229 -8.037,-4.98 l -1.192,-0.839 z" clip-path="url(#XMLID_3_)" id="path109" style="fill:#00549f"/>
<path d="m 12.129,89.385 0.037,0.838 c 0.037,1.389 0.372,2.291 1.77,3.295 2.313,1.641 7.422,4.895 7.422,4.895 v -3.209 c -2.807,-1.539 -5.508,-3.229 -8.037,-4.98 l -1.192,-0.839 z" clip-path="url(#XMLID_3_)" id="path111" style="fill:none;stroke:#00549f;stroke-width:0.161;stroke-miterlimit:3.86400008"/>
<path d="m 87.613,69.04 v 8.613 c 3.006,-2.568 5.758,-5.426 8.165,-8.592 L 87.613,69.04 z" clip-path="url(#XMLID_3_)" id="path113" style="fill:#00549f"/>
<path d="m 87.613,69.04 v 8.613 c 3.006,-2.568 5.758,-5.426 8.165,-8.592 L 87.613,69.04 z" clip-path="url(#XMLID_3_)" id="path115" style="fill:none;stroke:#00549f;stroke-width:0.161;stroke-miterlimit:3.86400008"/>
<path d="M 57.826,30.081 C 58.782,22.195 61.766,17.012 68,13.294 H 30.696 c 6.211,3.714 9.191,8.887 10.317,16.758 1.195,-0.222 2.54,-0.547 4.186,-0.547 2.052,0 3.489,0.694 4.141,1.987 0.502,-1.293 2.088,-1.987 4.157,-1.987 1.711,0 3.101,0.352 4.329,0.576" clip-path="url(#XMLID_3_)" id="path117" style="fill:#00549f"/>
<path d="M 57.826,30.081 C 58.782,22.195 61.766,17.012 68,13.294 H 30.696 c 6.211,3.714 9.191,8.887 10.317,16.758 1.195,-0.222 2.54,-0.547 4.186,-0.547 2.052,0 3.489,0.694 4.141,1.987 0.502,-1.293 2.088,-1.987 4.157,-1.987 1.711,0 3.101,0.352 4.329,0.576 z" clip-path="url(#XMLID_3_)" id="path119" style="fill:none;stroke:#00549f;stroke-width:0.109;stroke-miterlimit:3.86400008"/>
<path d="m 62.905,49.167 c 5.493,1.58 9.39,4.643 12.348,9.906 V 20.504 c -3.136,5.597 -7.323,8.644 -13.215,10.108 l 0.983,0.668 v 3.183 l 4.941,-0.005 c 1.287,0 2.125,0.25 2.125,1.331 0,1.272 -0.652,1.677 -1.843,1.677 H 63.02 v 5.168 h 4.941 c 1.287,0 2.125,0.227 2.125,1.328 0,1.253 -0.652,1.656 -1.843,1.656 h -5.224 v 3.549 h -0.114 z" clip-path="url(#XMLID_3_)" id="path121" style="fill:#00549f"/>
<path d="m 62.905,49.167 c 5.493,1.58 9.39,4.643 12.348,9.906 V 20.504 c -3.136,5.597 -7.323,8.644 -13.215,10.108 l 0.983,0.668 v 3.183 l 4.941,-0.005 c 1.287,0 2.125,0.25 2.125,1.331 0,1.272 -0.652,1.677 -1.843,1.677 H 63.02 v 5.168 h 4.941 c 1.287,0 2.125,0.227 2.125,1.328 0,1.253 -0.652,1.656 -1.843,1.656 h -5.224 v 3.549 h -0.114 z" clip-path="url(#XMLID_3_)" id="path123" style="fill:none;stroke:#00549f;stroke-width:0.109;stroke-miterlimit:3.86400008"/>
<path d="m 41.827,49.167 -0.719,0.09 C 40.065,57.538 37.092,62.981 30.697,66.823 H 68 C 61.591,62.985 58.618,57.542 57.735,49.275 l -0.844,-0.107 h -3.469 c -1.733,0 -1.529,0.865 -4.084,0.865 -2.554,0 -2.331,-0.865 -4.027,-0.865 h -3.484 z" clip-path="url(#XMLID_3_)" id="path125" style="fill:#00549f"/>
<path d="m 41.827,49.167 -0.719,0.09 C 40.065,57.538 37.092,62.981 30.697,66.823 H 68 C 61.591,62.985 58.618,57.542 57.735,49.275 l -0.844,-0.107 h -3.469 c -1.733,0 -1.529,0.865 -4.084,0.865 -2.554,0 -2.331,-0.865 -4.027,-0.865 h -3.484 z" clip-path="url(#XMLID_3_)" id="path127" style="fill:none;stroke:#00549f;stroke-width:0.109;stroke-miterlimit:3.86400008"/>
<path d="m 31.238,44.582 h -1.696 c 0,0.574 0.278,1.019 0.781,1.019 0.503,0 0.915,-0.444 0.915,-0.962 v -0.057 z m 4.554,1.038 h -3.939 c -0.259,0.52 -0.895,0.866 -1.529,0.866 -0.911,0 -1.713,-0.789 -1.713,-1.753 -0.599,-0.154 -0.821,-0.406 -0.821,-0.714 0,-0.307 0.223,-0.558 0.521,-0.558 0.3,-1.099 1.102,-1.889 2.013,-1.889 0.691,0 1.287,0.443 1.529,1.059 h 3.915 l -0.043,-5.165 h -3.872 c -0.259,0.479 -0.895,0.847 -1.529,0.847 -0.911,0 -1.713,-0.771 -1.713,-1.716 -0.599,-0.172 -0.821,-0.443 -0.821,-0.711 0,-0.348 0.223,-0.599 0.521,-0.599 0.3,-1.081 1.102,-1.868 2.013,-1.868 0.691,0 1.287,0.423 1.529,1.059 l 3.846,-0.003 -0.024,-3.195 1.05,-0.726 C 30.688,29.071 26.574,26.028 23.466,20.504 v 38.568 c 2.969,-5.262 6.86,-8.327 12.355,-9.905 L 35.792,45.62 z M 31.238,35.288 c 0,-0.5 -0.412,-0.946 -0.915,-0.946 -0.503,0 -0.781,0.446 -0.781,0.946 h 1.696 z m 0,1.196 -1.696,-0.059 c 0,0.578 0.278,0.982 0.781,0.982 0.503,0 0.915,-0.403 0.915,-0.923 m -1.696,6.978 h 1.696 c 0,-0.54 -0.412,-0.945 -0.915,-0.945 -0.503,0 -0.781,0.405 -0.781,0.945" clip-path="url(#XMLID_3_)" id="path129" style="fill:#00549f;fill-rule:evenodd"/>
<path d="m 31.238,44.582 h -1.696 c 0,0.574 0.278,1.019 0.781,1.019 0.503,0 0.915,-0.444 0.915,-0.962 v -0.057 z m 4.554,1.038 h -3.939 c -0.259,0.52 -0.895,0.866 -1.529,0.866 -0.911,0 -1.713,-0.789 -1.713,-1.753 -0.599,-0.154 -0.821,-0.406 -0.821,-0.714 0,-0.307 0.223,-0.558 0.521,-0.558 0.3,-1.099 1.102,-1.889 2.013,-1.889 0.691,0 1.287,0.443 1.529,1.059 h 3.915 l -0.043,-5.165 h -3.872 c -0.259,0.479 -0.895,0.847 -1.529,0.847 -0.911,0 -1.713,-0.771 -1.713,-1.716 -0.599,-0.172 -0.821,-0.443 -0.821,-0.711 0,-0.348 0.223,-0.599 0.521,-0.599 0.3,-1.081 1.102,-1.868 2.013,-1.868 0.691,0 1.287,0.423 1.529,1.059 l 3.846,-0.003 -0.024,-3.195 1.05,-0.726 C 30.688,29.071 26.574,26.028 23.466,20.504 v 38.568 c 2.969,-5.262 6.86,-8.327 12.355,-9.905 L 35.792,45.62 z M 31.238,35.288 c 0,-0.5 -0.412,-0.946 -0.915,-0.946 -0.503,0 -0.781,0.446 -0.781,0.946 h 1.696 z m 0,1.196 -1.696,-0.059 c 0,0.578 0.278,0.982 0.781,0.982 0.503,0 0.915,-0.403 0.915,-0.923 z m -1.696,6.978 h 1.696 c 0,-0.54 -0.412,-0.945 -0.915,-0.945 -0.503,0 -0.781,0.405 -0.781,0.945 z" clip-path="url(#XMLID_3_)" id="path131" style="fill:none;stroke:#00549f;stroke-width:0.109;stroke-miterlimit:3.86400008"/>
<path d="m 40.192,49.386 c -9.138,1.4 -14.639,5.376 -17.774,15.048 V 15.163 c 3.122,9.63 8.626,13.508 17.693,14.965 C 38.506,20.927 34.717,15.4 25.534,12.178 h 47.611 c -9.161,3.223 -12.963,8.74 -14.386,17.93 8.998,-1.468 14.448,-5.354 17.556,-14.944 V 64.435 C 73.199,54.817 67.727,50.832 58.681,49.413 c 1.357,9.493 5.114,15.243 14.464,18.491 H 25.515 C 34.89,64.651 38.646,58.895 40.192,49.386 M 12.688,46.911 c 0,18.544 16.274,36.316 36.651,42.136 20.413,-5.82 36.689,-23.592 36.689,-42.136 V 2.133 h -73.34 v 44.778 z" clip-path="url(#XMLID_3_)" id="path133" style="fill:#bda051;fill-rule:evenodd"/>
<path d="m 40.192,49.386 c -9.138,1.4 -14.639,5.376 -17.774,15.048 V 15.163 c 3.122,9.63 8.626,13.508 17.693,14.965 C 38.506,20.927 34.717,15.4 25.534,12.178 h 47.611 c -9.161,3.223 -12.963,8.74 -14.386,17.93 8.998,-1.468 14.448,-5.354 17.556,-14.944 V 64.435 C 73.199,54.817 67.727,50.832 58.681,49.413 c 1.357,9.493 5.114,15.243 14.464,18.491 H 25.515 C 34.89,64.651 38.646,58.895 40.192,49.386 z M 12.688,46.911 c 0,18.544 16.274,36.316 36.651,42.136 20.413,-5.82 36.689,-23.592 36.689,-42.136 V 2.133 h -73.34 v 44.778 z" clip-path="url(#XMLID_3_)" id="path135" style="fill:none;stroke:#bda051;stroke-width:0.109;stroke-miterlimit:3.86400008"/>
<path d="m 33.22,98.159 0.06,0.203 1.023,0.424 -0.197,-0.627 H 33.22 z m 13.224,7.134 0.895,2.543 -1.826,-0.115 0.931,-2.428 z m -2.832,4.739 1.082,0.057 0.559,-1.5 2.345,0.172 0.599,1.6 1.079,0.076 -2.292,-6.045 -1.079,-0.08 -2.293,5.72 z m 11.325,-3.967 c -0.15,-1.271 -1.229,-1.926 -2.532,-1.869 -1.77,0.115 -2.794,1.563 -2.794,3.275 0.037,1.656 1.117,3.002 2.888,2.889 1.434,-0.076 2.419,-1.098 2.476,-2.523 l -1.005,0.076 c -0.074,0.826 -0.579,1.561 -1.511,1.617 -1.265,0.08 -1.804,-1.02 -1.804,-2.135 -0.02,-1.139 0.482,-2.273 1.75,-2.352 0.875,-0.059 1.304,0.424 1.49,1.08 l 1.042,-0.058 z" clip-path="url(#XMLID_3_)" id="path137" style="fill-rule:evenodd"/>
<path d="m 34.105,98.159 -1.905,-5.998 -0.951,-0.365 -2.159,5.027 1.042,0.402 0.541,-1.422 2.087,0.846 0.458,1.51 h 0.887 z M 77.541,87.846 78.995,87 c 0.466,-0.271 0.746,-0.193 0.746,0.387 0,0.5 -0.337,0.982 -0.746,1.232 l -1.454,0.809 v -1.582 z m 0,2.313 1.564,-0.885 c 0.522,-0.309 0.857,-0.174 0.857,0.402 0,0.563 -0.335,1.08 -0.857,1.367 l -1.564,0.908 v -1.792 z m -4.281,0.095 0.855,2.117 -1.62,0.732 0.765,-2.849 z m 9.87,-5.814 c 0.912,-0.904 1.47,-0.365 1.657,0.561 0.168,0.904 -0.057,2.215 -0.988,3.117 -0.969,0.906 -1.526,0.367 -1.674,-0.598 -0.188,-0.904 0.037,-2.174 1.005,-3.08 m 3.929,-2.598 1.324,-1.02 c 0.426,-0.33 0.798,-0.521 0.798,0.209 0,0.578 -0.28,1.098 -0.781,1.541 l -1.341,1 v -1.73 z m -55.344,11.186 0.784,2.736 -1.586,-0.656 0.802,-2.08 z m 44.932,0.269 2.328,-1.346 c 1.34,-0.715 1.883,-1.754 1.883,-2.678 0,-0.77 -0.353,-1.117 -0.969,-0.924 0.466,-0.521 0.727,-1.098 0.727,-1.658 0,-0.961 -0.597,-1.074 -1.511,-0.578 l -2.458,1.406 v 5.778 z m -5.828,2.946 1.024,-0.479 0.449,-1.754 2.122,-0.982 0.632,1.234 0.951,-0.443 -2.386,-4.738 -0.967,0.443 -1.825,6.719 z m -4.543,1.754 3.932,-1.6 v -0.885 l -2.945,1.193 v -4.891 l -0.986,0.402 v 5.781 z M 82.96,83.727 c -1.32,1.273 -1.859,3.18 -1.6,4.566 0.242,1.383 1.247,1.77 2.552,0.498 1.32,-1.271 1.918,-3.158 1.656,-4.506 -0.259,-1.406 -1.267,-1.808 -2.608,-0.558 m 3.277,3.352 0.821,-0.637 v -2.289 l 1.211,-0.963 c 0.744,-0.563 0.911,-0.271 0.911,0.771 0,0.248 0,0.576 0.132,0.73 l 0.872,-0.674 c -0.166,-0.098 -0.239,-0.637 -0.239,-1.291 0,-0.885 -0.409,-0.791 -0.691,-0.617 0.149,-0.193 0.765,-0.98 0.765,-2.021 0,-0.961 -0.521,-1.098 -1.547,-0.307 l -2.234,1.771 v 5.527 z m 4.583,-3.698 2.98,-2.738 v -0.861 l -2.256,2.078 v -1.619 l 2.05,-1.865 v -0.791 l -2.05,1.869 v -1.445 l 2.199,-2.059 v -0.832 l -2.924,2.68 v 5.583 z M 3.988,78.432 c 0.019,1.426 0.743,2.6 1.638,3.234 0.765,0.539 1.526,0.578 1.526,-0.715 0,-0.594 -0.259,-1.441 -0.762,-2 C 6.185,78.703 5.328,77.777 5.272,77.68 5.01,77.373 4.825,77.01 4.825,76.604 c 0,-0.561 0.372,-0.443 0.708,-0.252 0.465,0.346 0.781,0.865 0.817,1.656 l 0.673,0.463 c 0,-1.193 -0.673,-2.311 -1.49,-2.906 -0.708,-0.502 -1.397,-0.447 -1.397,0.672 0,0.615 0.206,1.369 0.857,2.082 l 1.154,1.307 c 0.167,0.215 0.316,0.504 0.316,0.943 0,0.463 -0.243,0.734 -0.819,0.271 C 5.106,80.473 4.658,79.817 4.658,78.914 l -0.67,-0.482 z m 7.392,3.832 c -0.093,-1.27 -0.802,-2.482 -1.75,-3.08 -1.247,-0.791 -1.975,0.115 -1.975,1.752 0,1.656 0.728,3.504 1.975,4.295 1.005,0.635 1.713,0.135 1.75,-1.213 l -0.708,-0.463 c -0.037,0.809 -0.409,1.27 -1.042,0.826 -0.875,-0.555 -1.266,-1.889 -1.266,-2.984 0,-1.095 0.391,-1.963 1.266,-1.385 0.596,0.383 0.895,1.059 1.025,1.809 l 0.725,0.443 z m 0.859,4.797 0.835,0.574 v -5.658 l -0.835,-0.58 v 5.664 z m 1.657,1.252 3.369,2.27 v -0.885 l -2.568,-1.715 v -1.695 l 2.363,1.541 V 87 l -2.363,-1.541 v -1.518 l 2.531,1.691 v -0.885 l -3.332,-2.176 v 5.742 z m 4.3,2.811 0.858,0.537 v -4.273 l 2.155,5.564 0.878,0.52 v -5.854 l -0.765,-0.441 v 4.273 l -2.176,-5.527 -0.951,-0.557 v 5.758 z m 4.786,-2.159 1.49,0.754 v 4.83 l 0.968,0.559 v -4.834 l 1.544,0.75 v -0.883 l -4.002,-2.023 v 0.847 z m 4.804,7.221 0.969,0.443 v -5.664 l -0.969,-0.461 v 5.682 z" clip-path="url(#XMLID_3_)" id="path139" style="fill-rule:evenodd"/>
<path d="M 96.767,69.946 C 88.507,81.647 69.81,91.456 56.593,94.255 L 65,99.399 C 77.808,95.161 89.963,86.428 96.767,79.061 v -9.115 z m -40.975,31.783 c 2.756,-0.404 4.565,-0.941 7.622,-1.906 L 55.792,95.1 v 6.629 z M 42.928,95.1 35.282,99.823 c 3.06,0.965 4.864,1.502 7.646,1.906 V 95.1 z M 1.912,79.061 c 6.824,7.367 18.996,16.1 31.767,20.338 l 8.407,-5.145 C 28.87,91.456 10.173,81.647 1.912,69.946 v 9.115 z m 32.31,29.416 c 4.063,1.85 9.358,3.084 15.118,3.084 5.779,0 11.074,-1.234 15.118,-3.084 v -7.73 c -5.089,1.621 -10.309,2.547 -15.118,2.547 -4.79,0 -10.03,-0.926 -15.118,-2.547 v 7.73 z m 52.342,-19.084 -1.171,0.83 c -2.531,1.76 -5.238,3.449 -8.052,4.99 v 3.201 c 0,0 5.089,-3.254 7.419,-4.896 1.397,-1.004 1.716,-1.906 1.79,-3.295 l 0.014,-0.83 z M 11.063,77.643 11.065,69.039 2.917,69.06 c 2.398,3.159 5.146,6.017 8.146,8.583 m 9.913,6.981 C 20.72,83.792 20.308,82.997 19.681,82.03 L 12.148,70.717 v 7.83 c 2.768,2.26 5.736,4.282 8.828,6.077 m -8.847,4.761 0.037,0.838 c 0.035,1.389 0.372,2.291 1.771,3.295 2.312,1.643 7.42,4.896 7.42,4.896 v -3.211 c -2.809,-1.539 -5.507,-3.229 -8.038,-4.98 l -1.19,-0.838 z M 87.612,69.04 v 8.613 c 3.008,-2.564 5.76,-5.426 8.168,-8.592 L 87.612,69.04 z M 76.611,85.25 c 0.121,-1.402 0.623,-2.568 1.719,-4.373 1.583,-2.566 8.743,-12.975 8.743,-12.975 h 10.794 v 11.641 c -2.633,2.885 -6.143,6.031 -10.195,9.043 0,0 0,1.426 -0.04,1.637 -0.13,2.1 -0.803,3.201 -1.993,4.031 -1.718,1.174 -5.074,3.564 -9.323,5.953 v -4.443 c -3.481,1.846 -7.112,3.447 -10.776,4.656 v 8.732 c -4.493,2.043 -9.488,3.373 -16.199,3.373 -6.675,0 -11.709,-1.33 -16.183,-3.373 V 100.42 C 29.494,99.209 25.853,97.598 22.363,95.746 v 4.461 c -4.23,-2.389 -7.57,-4.779 -9.302,-5.953 -1.191,-0.83 -1.883,-1.932 -1.996,-4.031 L 11.048,88.598 C 6.969,85.584 3.468,82.432 0.831,79.543 v -11.64 h 10.813 c 0,0 7.159,10.408 8.745,12.975 1.101,1.83 1.589,3.008 1.804,4.436 3.423,1.902 6.991,3.533 10.609,4.91 3.69,1.41 7.438,2.563 11.15,3.473 v 8.152 c 1.713,0.152 3.99,0.344 5.388,0.344 1.398,0 3.671,-0.191 5.404,-0.344 v -8.152 c 3.712,-0.91 7.46,-2.063 11.15,-3.473 3.659,-1.391 7.262,-3.046 10.717,-4.974 m 9.94,-6.708 V 70.718 L 79.038,82.03 c -0.636,0.967 -1.053,1.76 -1.312,2.588 3.092,-1.793 6.056,-3.819 8.825,-6.076" clip-path="url(#XMLID_3_)" id="path141"/>
<path d="m 12.688,46.912 c 0,18.543 16.275,36.315 36.65,42.137 C 69.754,83.227 86.03,65.456 86.03,46.912 V 2.136 H 12.688 v 44.776 z m 74.404,0.269 c 0,19.064 -17.151,37.355 -37.753,43.025 C 28.778,84.536 11.624,66.245 11.624,47.181 V 1.016 h 75.468 v 46.165 z" clip-path="url(#XMLID_3_)" id="path143"/>
<path d="m 31.238,36.484 -1.696,-0.059 c 0,0.578 0.278,0.982 0.781,0.982 0.503,0 0.915,-0.403 0.915,-0.923 m 0,-1.196 c 0,-0.5 -0.412,-0.946 -0.915,-0.946 -0.503,0 -0.781,0.446 -0.781,0.946 h 1.696 z M 57.826,30.081 C 58.782,22.195 61.766,17.015 68,13.294 H 30.697 c 6.21,3.712 9.19,8.891 10.316,16.76 1.193,-0.224 2.543,-0.549 4.188,-0.549 2.05,0 3.485,0.694 4.138,1.987 0.506,-1.293 2.089,-1.987 4.157,-1.987 1.71,0 3.102,0.355 4.33,0.576 m 5.079,19.087 c 5.493,1.578 9.39,4.643 12.348,9.905 V 20.505 C 72.117,26.099 67.93,29.15 62.038,30.611 l 0.985,0.669 v 3.18 l 4.939,-0.002 c 1.287,0 2.125,0.252 2.125,1.332 0,1.271 -0.652,1.677 -1.843,1.677 h -5.222 v 5.165 h 4.939 c 1.287,0 2.125,0.231 2.125,1.331 0,1.25 -0.652,1.657 -1.843,1.657 h -5.222 v 3.548 h -0.116 z m -22.713,0.217 c -9.139,1.402 -14.636,5.377 -17.771,15.047 v -49.27 c 3.119,9.63 8.621,13.511 17.688,14.964 C 38.506,20.925 34.717,15.399 25.534,12.178 h 47.612 c -9.162,3.222 -12.964,8.739 -14.387,17.931 9,-1.466 14.446,-5.356 17.557,-14.946 v 49.27 C 73.198,54.819 67.725,50.834 58.68,49.412 c 1.357,9.494 5.113,15.246 14.466,18.49 H 25.514 C 34.89,64.653 38.649,58.893 40.192,49.385 m 1.635,-0.217 -0.719,0.087 C 40.065,57.536 37.092,62.983 30.697,66.823 H 68 C 61.591,62.985 58.618,57.544 57.735,49.272 l -0.844,-0.104 h -3.469 c -1.733,0 -1.529,0.865 -4.084,0.865 -2.554,0 -2.331,-0.865 -4.027,-0.865 H 41.827 z M 35.792,45.62 h -3.939 c -0.259,0.52 -0.895,0.866 -1.529,0.866 -0.911,0 -1.713,-0.789 -1.713,-1.753 -0.599,-0.154 -0.821,-0.406 -0.821,-0.714 0,-0.307 0.223,-0.558 0.521,-0.558 0.3,-1.099 1.102,-1.889 2.013,-1.889 0.691,0 1.287,0.443 1.529,1.059 h 3.915 l -0.043,-5.165 h -3.872 c -0.259,0.479 -0.895,0.847 -1.529,0.847 -0.911,0 -1.713,-0.771 -1.713,-1.716 -0.599,-0.172 -0.821,-0.443 -0.821,-0.711 0,-0.348 0.223,-0.599 0.521,-0.599 0.3,-1.081 1.102,-1.868 2.013,-1.868 0.691,0 1.287,0.423 1.529,1.059 l 3.846,-0.003 -0.024,-3.195 1.05,-0.726 C 30.688,29.071 26.574,26.028 23.466,20.504 v 38.568 c 2.969,-5.262 6.86,-8.327 12.355,-9.905 L 35.792,45.62 z m -4.554,-1.038 h -1.696 c 0,0.574 0.278,1.019 0.781,1.019 0.503,0 0.915,-0.444 0.915,-0.962 v -0.057 z m -1.696,-1.12 h 1.696 c 0,-0.54 -0.412,-0.945 -0.915,-0.945 -0.503,0 -0.781,0.405 -0.781,0.945" clip-path="url(#XMLID_3_)" id="path145"/>
<path d="M 59.892,46.255 H 54.56 c -2.537,0 -2.946,0.097 -4.697,0.83 V 33.092 c 0,-1.522 1.565,-2.448 3.634,-2.448 3.06,0 4.699,1.001 6.396,0.674 v 14.937 z" clip-path="url(#XMLID_3_)" id="path147" style="fill:#fff;fill-rule:evenodd"/>
<path d="m 48.8,47.085 c -1.753,-0.695 -2.146,-0.83 -4.663,-0.83 H 38.769 V 31.317 c 1.734,0.326 3.375,-0.676 6.432,-0.676 2.052,0 3.6,0.926 3.6,2.45 v 13.994 z" clip-path="url(#XMLID_3_)" id="path149" style="fill:#fff"/>
<path d="m 49.34,49.032 c 2.554,0 2.349,-0.963 4.045,-0.963 H 62 V 32.03 L 60.99,31.298 V 47.2 h -6.988 c -3.079,0 -2.052,0.963 -4.662,0.963 -2.294,0 -1.397,-0.963 -4.643,-0.963 H 37.706 V 31.298 l -1.023,0.732 v 16.039 h 8.629 c 1.696,0 1.473,0.963 4.028,0.963" clip-path="url(#XMLID_3_)" id="path151" style="fill:#fff"/>
</g>
</svg>